<?xml version="1.0" encoding="UTF-8"?>
<svg xmlns="http://www.w3.org/2000/svg" xmlns:xlink="http://www.w3.org/1999/xlink" width="108px" height="108px" viewBox="0 0 108 108" version="1.1">
<defs>
<filter id="alpha" filterUnits="objectBoundingBox" x="0%" y="0%" width="100%" height="100%">
  <feColorMatrix type="matrix" in="SourceGraphic" values="0 0 0 0 1 0 0 0 0 1 0 0 0 0 1 0 0 0 1 0"/>
</filter>
<mask id="mask0">
  <g filter="url(#alpha)">
<rect x="0" y="0" width="108" height="108" style="fill:rgb(0%,0%,0%);fill-opacity:0.2;stroke:none;"/>
  </g>
</mask>
<clipPath id="clip1">
  <rect x="0" y="0" width="108" height="108"/>
</clipPath>
<g id="surface5" clip-path="url(#clip1)">
<path style=" stroke:none;fill-rule:nonzero;fill:rgb(1.960784%,1.960784%,1.960784%);fill-opacity:1;" d="M 63.425781 17.566406 C 63.425781 22.71875 59.25 26.894531 54.097656 26.894531 C 48.945312 26.894531 44.769531 22.71875 44.769531 17.566406 C 44.769531 12.414062 48.945312 8.238281 54.097656 8.238281 C 59.25 8.238281 63.425781 12.414062 63.425781 17.566406 Z M 63.425781 17.566406 "/>
</g>
<mask id="mask1">
  <g filter="url(#alpha)">
<rect x="0" y="0" width="108" height="108" style="fill:rgb(0%,0%,0%);fill-opacity:0.2;stroke:none;"/>
  </g>
</mask>
<clipPath id="clip2">
  <rect x="0" y="0" width="108" height="108"/>
</clipPath>
<g id="surface8" clip-path="url(#clip2)">
<path style=" stroke:none;fill-rule:nonzero;fill:rgb(0%,0%,0%);fill-opacity:1;" d="M 71.519531 74.0625 C 71.175781 74.457031 70.816406 74.839844 70.449219 75.207031 C 69.632812 76.03125 68.753906 76.796875 67.824219 77.488281 C 66.605469 78.40625 65.273438 79.160156 63.859375 79.738281 C 62.96875 80.097656 62.042969 80.371094 61.101562 80.554688 C 60.265625 80.710938 59.417969 80.785156 58.570312 80.773438 C 56.902344 80.742188 55.257812 80.398438 53.71875 79.765625 L 53.441406 79.652344 C 52.21875 79.128906 51.054688 78.464844 49.980469 77.675781 C 47.953125 76.164062 46.167969 74.355469 44.679688 72.3125 C 44.441406 71.988281 44.210938 71.660156 43.984375 71.320312 C 44.03125 71.175781 44.074219 71.027344 44.109375 70.871094 C 44.269531 70.316406 44.394531 69.753906 44.488281 69.183594 C 44.734375 69.386719 44.984375 69.578125 45.238281 69.761719 C 45.917969 70.257812 46.632812 70.707031 47.375 71.101562 C 47.449219 71.136719 47.519531 71.183594 47.597656 71.222656 C 47.671875 71.257812 47.769531 71.308594 47.863281 71.355469 L 48.175781 71.503906 L 48.355469 71.589844 C 48.410156 71.613281 48.464844 71.644531 48.511719 71.660156 L 48.707031 71.742188 L 48.886719 71.816406 C 48.917969 71.832031 48.949219 71.84375 48.980469 71.855469 C 49.050781 71.886719 49.128906 71.917969 49.199219 71.941406 C 49.269531 71.96875 49.382812 72.011719 49.480469 72.042969 C 49.589844 72.082031 49.679688 72.121094 49.78125 72.144531 L 49.847656 72.175781 C 49.921875 72.175781 49.992188 72.222656 50.066406 72.238281 C 50.171875 72.277344 50.28125 72.3125 50.390625 72.339844 C 50.4375 72.347656 50.488281 72.359375 50.535156 72.375 L 50.828125 72.457031 C 51.449219 72.617188 52.085938 72.726562 52.726562 72.785156 C 52.792969 72.800781 52.859375 72.808594 52.929688 72.808594 C 52.96875 72.8125 53.011719 72.8125 53.054688 72.808594 C 53.148438 72.808594 53.226562 72.808594 53.320312 72.808594 C 53.414062 72.808594 53.46875 72.808594 53.546875 72.828125 L 54.046875 72.828125 C 55.425781 72.820312 56.796875 72.59375 58.105469 72.15625 L 58.132812 72.15625 L 58.289062 72.101562 C 58.566406 72.019531 58.832031 71.910156 59.105469 71.808594 L 59.179688 71.773438 L 59.527344 71.625 C 59.554688 71.625 59.582031 71.597656 59.621094 71.589844 C 60.839844 71.035156 61.992188 70.355469 63.066406 69.554688 L 63.746094 69.03125 C 63.871094 69.601562 64.027344 70.210938 64.222656 70.855469 C 64.394531 71.433594 64.589844 71.972656 64.777344 72.476562 L 65.238281 72.5625 L 65.699219 72.644531 L 66.144531 72.726562 C 66.253906 72.753906 66.363281 72.769531 66.484375 72.796875 C 66.558594 72.808594 66.632812 72.824219 66.707031 72.84375 C 67.273438 72.964844 67.839844 73.082031 68.394531 73.21875 C 69.28125 73.429688 70.152344 73.640625 71.023438 73.910156 Z M 71.519531 74.0625 "/>
</g>
<mask id="mask2">
  <g filter="url(#alpha)">
<rect x="0" y="0" width="108" height="108" style="fill:rgb(0%,0%,0%);fill-opacity:0.301961;stroke:none;"/>
  </g>
</mask>
<clipPath id="clip3">
  <rect x="0" y="0" width="108" height="108"/>
</clipPath>
<g id="surface11" clip-path="url(#clip3)">
<path style=" stroke:none;fill-rule:nonzero;fill:rgb(0%,0%,0%);fill-opacity:1;" d="M 78.445312 50.558594 C 78.367188 52.730469 76.984375 54.917969 75.433594 55.738281 C 75.226562 55.84375 75.011719 55.925781 74.785156 55.988281 L 74.730469 55.988281 C 74.453125 56.050781 74.167969 56.058594 73.886719 56.011719 C 73.582031 55.949219 73.296875 55.824219 73.042969 55.644531 L 72.925781 55.558594 C 72.753906 55.417969 72.597656 55.265625 72.457031 55.097656 C 71.339844 53.75 70.882812 51.21875 71.632812 49.191406 C 71.933594 48.402344 72.390625 47.683594 72.980469 47.082031 C 73.355469 46.695312 73.800781 46.386719 74.292969 46.164062 C 74.464844 46.089844 74.648438 46.035156 74.832031 46 C 75.160156 45.929688 75.496094 45.929688 75.824219 46 C 75.871094 46 75.925781 46 75.972656 46.039062 C 77.691406 46.507812 78.5 48.796875 78.445312 50.558594 Z M 78.445312 50.558594 "/>
</g>
<mask id="mask3">
  <g filter="url(#alpha)">
<rect x="0" y="0" width="108" height="108" style="fill:rgb(0%,0%,0%);fill-opacity:0.2;stroke:none;"/>
  </g>
</mask>
<clipPath id="clip4">
  <rect x="0" y="0" width="108" height="108"/>
</clipPath>
<g id="surface14" clip-path="url(#clip4)">
<path style=" stroke:none;fill-rule:nonzero;fill:rgb(0%,0%,0%);fill-opacity:1;" d="M 68.3125 47.359375 C 66.242188 47.304688 62.960938 45.554688 61.140625 44.3125 C 55.789062 40.6875 51.636719 33.765625 48.636719 33.636719 C 48.316406 33.621094 48 33.667969 47.695312 33.773438 C 46.339844 34.277344 45.878906 36.046875 45.394531 37.761719 C 44.800781 39.871094 44.402344 41.246094 44.128906 42.125 C 44.097656 39.714844 44.050781 37.089844 45.511719 33.363281 C 45.933594 32.253906 46.492188 31.113281 47.589844 30.710938 C 48.125 30.511719 49.867188 30.089844 54.292969 34.175781 C 55.457031 35.226562 56.523438 36.382812 57.484375 37.621094 C 61.085938 42.328125 61.121094 42.683594 62.96875 44.3125 C 65.570312 46.640625 67.167969 46.523438 68.3125 47.359375 Z M 68.3125 47.359375 "/>
</g>
</defs>
<g id="surface1">
<path style=" stroke:none;fill-rule:nonzero;fill:rgb(51.764706%,81.568627%,96.862745%);fill-opacity:1;" d="M 105.113281 53.882812 C 105.132812 65.863281 100.90625 77.464844 93.1875 86.632812 C 91.96875 88.078125 90.675781 89.457031 89.308594 90.761719 L 19.277344 90.761719 C 17.941406 89.597656 16.679688 88.347656 15.5 87.023438 C 15.398438 86.910156 15.285156 86.777344 15.15625 86.625 C 12.234375 83.140625 2.765625 70.78125 3.257812 53.882812 C 3.9375 30.464844 23.625 2.953125 54.1875 2.953125 C 82.3125 2.953125 105.113281 25.753906 105.113281 53.882812 Z M 105.113281 53.882812 "/>
<path style=" stroke:none;fill-rule:nonzero;fill:rgb(17.647059%,17.647059%,17.647059%);fill-opacity:1;" d="M 63.425781 17.566406 C 63.425781 22.71875 59.25 26.894531 54.097656 26.894531 C 48.945312 26.894531 44.769531 22.71875 44.769531 17.566406 C 44.769531 12.414062 48.945312 8.238281 54.097656 8.238281 C 59.25 8.238281 63.425781 12.414062 63.425781 17.566406 Z M 63.425781 17.566406 "/>
<use xlink:href="#surface5" mask="url(#mask0)"/>
<path style=" stroke:none;fill-rule:nonzero;fill:rgb(66.666667%,22.352941%,17.647059%);fill-opacity:1;" d="M 93.183594 86.632812 C 89.609375 90.910156 85.347656 94.566406 80.578125 97.453125 C 72.625 102.292969 63.492188 104.84375 54.1875 104.824219 C 43.34375 104.824219 34.285156 101.054688 27.65625 96.976562 C 24.695312 95.15625 21.894531 93.085938 19.289062 90.785156 C 17.953125 89.617188 16.695312 88.367188 15.519531 87.042969 C 15.417969 86.929688 15.300781 86.792969 15.171875 86.621094 C 18.300781 83.492188 21.855469 80.824219 25.734375 78.691406 C 29.394531 76.667969 33.277344 75.066406 37.300781 73.925781 C 42.902344 78.875 48.496094 83.824219 54.085938 88.765625 C 59.742188 83.820312 65.390625 78.871094 71.035156 73.925781 C 71.152344 73.964844 71.277344 73.988281 71.394531 74.027344 C 71.433594 74.042969 71.472656 74.054688 71.511719 74.0625 C 75.359375 75.199219 79.070312 76.746094 82.585938 78.675781 C 86.472656 80.820312 90.039062 83.5 93.183594 86.632812 Z M 93.183594 86.632812 "/>
<path style=" stroke:none;fill-rule:nonzero;fill:rgb(48.627451%,12.941176%,10.196078%);fill-opacity:1;" d="M 71.042969 73.925781 C 65.398438 78.875 59.75 83.824219 54.09375 88.765625 C 48.503906 83.820312 42.910156 78.871094 37.3125 73.925781 C 38.15625 73.59375 39.039062 73.359375 39.9375 73.238281 C 44.652344 77.289062 49.367188 81.332031 54.085938 85.375 C 58.867188 81.320312 63.648438 77.273438 68.429688 73.238281 C 69.324219 73.367188 70.199219 73.597656 71.042969 73.925781 Z M 71.042969 73.925781 "/>
<path style=" stroke:none;fill-rule:nonzero;fill:rgb(89.803922%,60%,45.098039%);fill-opacity:1;" d="M 68.414062 73.238281 C 63.632812 77.277344 58.851562 81.324219 54.070312 85.375 C 49.371094 81.332031 44.660156 77.289062 39.9375 73.238281 C 40.546875 73.089844 41.179688 72.953125 41.820312 72.816406 C 42.460938 72.675781 42.992188 72.585938 43.5625 72.496094 C 43.847656 71.792969 44.078125 71.066406 44.257812 70.332031 C 44.351562 69.910156 44.421875 69.542969 44.488281 69.175781 C 45.0625 69.644531 45.667969 70.078125 46.300781 70.46875 C 46.90625 70.847656 47.53125 71.1875 48.175781 71.496094 C 49.953125 72.304688 51.875 72.765625 53.828125 72.855469 C 56.003906 72.808594 58.148438 72.304688 60.117188 71.378906 C 60.824219 71.023438 61.515625 70.632812 62.179688 70.203125 C 62.820312 69.78125 63.351562 69.359375 63.757812 69.046875 C 63.875 69.589844 64.023438 70.15625 64.207031 70.734375 C 64.386719 71.3125 64.582031 71.9375 64.792969 72.476562 C 65.289062 72.5625 65.792969 72.652344 66.316406 72.761719 C 67.039062 72.917969 67.734375 73.074219 68.414062 73.238281 Z M 68.414062 73.238281 "/>
<use xlink:href="#surface8" mask="url(#mask1)"/>
<path style=" stroke:none;fill-rule:nonzero;fill:rgb(89.803922%,60%,45.098039%);fill-opacity:1;" d="M 78.4375 50.558594 C 78.375 52.726562 76.988281 54.925781 75.441406 55.734375 C 75.230469 55.839844 75.007812 55.925781 74.78125 55.984375 L 74.730469 55.984375 C 74.453125 56.050781 74.167969 56.058594 73.886719 56.007812 C 73.582031 55.949219 73.292969 55.824219 73.042969 55.640625 C 73.003906 55.613281 72.960938 55.585938 72.925781 55.550781 C 72.75 55.417969 72.59375 55.261719 72.457031 55.089844 C 71.339844 53.742188 70.882812 51.214844 71.613281 49.183594 C 71.914062 48.394531 72.371094 47.675781 72.964844 47.074219 C 73.457031 46.535156 74.101562 46.160156 74.8125 45.988281 C 75.136719 45.921875 75.472656 45.921875 75.796875 45.988281 C 77.644531 46.382812 78.492188 48.746094 78.4375 50.558594 Z M 78.4375 50.558594 "/>
<use xlink:href="#surface11" mask="url(#mask2)"/>
<path style=" stroke:none;fill-rule:nonzero;fill:rgb(89.803922%,60%,45.098039%);fill-opacity:1;" d="M 35.894531 55.105469 C 35.722656 55.3125 35.523438 55.496094 35.308594 55.652344 C 34.820312 56.007812 34.203125 56.132812 33.621094 55.996094 L 33.570312 55.996094 C 33.339844 55.9375 33.121094 55.851562 32.910156 55.742188 C 31.363281 54.9375 29.976562 52.738281 29.910156 50.570312 C 29.855469 48.761719 30.703125 46.394531 32.546875 46.027344 C 33.59375 45.816406 34.597656 46.320312 35.386719 47.113281 C 35.976562 47.71875 36.4375 48.4375 36.738281 49.222656 C 37.464844 51.226562 37.007812 53.753906 35.894531 55.105469 Z M 35.894531 55.105469 "/>
<path style=" stroke:none;fill-rule:nonzero;fill:rgb(89.803922%,60%,45.098039%);fill-opacity:1;" d="M 74.8125 46.023438 C 74.8125 46.1875 74.8125 46.359375 74.785156 46.53125 C 74.585938 49.617188 73.949219 52.65625 72.902344 55.566406 C 70.964844 61.050781 67.691406 65.882812 63.757812 69.066406 L 63.078125 69.589844 C 62.007812 70.386719 60.851562 71.070312 59.632812 71.621094 C 59.59375 71.621094 59.570312 71.652344 59.539062 71.660156 L 59.191406 71.808594 L 59.117188 71.839844 C 58.84375 71.941406 58.578125 72.050781 58.304688 72.136719 L 58.148438 72.191406 L 58.117188 72.191406 C 56.808594 72.628906 55.4375 72.855469 54.058594 72.863281 L 53.578125 72.863281 C 53.496094 72.863281 53.421875 72.863281 53.351562 72.839844 C 53.277344 72.820312 53.175781 72.839844 53.085938 72.839844 C 53.042969 72.84375 53 72.84375 52.957031 72.839844 C 52.890625 72.839844 52.820312 72.832031 52.753906 72.820312 C 52.113281 72.757812 51.480469 72.648438 50.855469 72.492188 L 50.566406 72.410156 C 50.519531 72.394531 50.46875 72.378906 50.417969 72.371094 C 50.308594 72.347656 50.203125 72.3125 50.097656 72.269531 C 50.023438 72.269531 49.949219 72.226562 49.878906 72.207031 L 49.78125 72.140625 C 49.679688 72.117188 49.589844 72.078125 49.480469 72.039062 C 49.382812 72.003906 49.292969 71.976562 49.199219 71.9375 C 49.105469 71.898438 49.050781 71.882812 48.980469 71.847656 C 48.949219 71.839844 48.917969 71.828125 48.886719 71.8125 L 48.707031 71.738281 L 48.511719 71.65625 C 48.464844 71.65625 48.410156 71.609375 48.355469 71.582031 L 48.175781 71.5 L 47.863281 71.351562 C 47.769531 71.304688 47.675781 71.261719 47.597656 71.214844 C 47.515625 71.171875 47.449219 71.132812 47.375 71.097656 C 46.632812 70.703125 45.917969 70.253906 45.238281 69.757812 C 44.984375 69.574219 44.734375 69.382812 44.488281 69.179688 C 43.835938 68.667969 43.214844 68.113281 42.632812 67.519531 C 42.023438 66.925781 41.445312 66.292969 40.90625 65.632812 C 38.378906 62.519531 36.445312 58.972656 35.203125 55.164062 C 34.378906 52.691406 33.84375 50.132812 33.605469 47.535156 C 33.570312 47.113281 33.542969 46.691406 33.523438 46.246094 C 33.445312 44.730469 33.492188 43.207031 33.660156 41.699219 C 33.726562 41.082031 33.816406 40.480469 33.925781 39.871094 C 34.0625 39.121094 34.234375 38.378906 34.441406 37.644531 C 34.925781 35.835938 35.578125 34.074219 36.382812 32.382812 C 38.15625 28.671875 40.710938 25.175781 43.898438 22.679688 C 46.792969 20.332031 50.390625 19.03125 54.113281 18.984375 C 60.335938 18.953125 65.503906 22.613281 69.089844 27.535156 C 70.554688 29.535156 71.765625 31.707031 72.691406 34.007812 C 72.933594 34.585938 73.152344 35.164062 73.355469 35.75 C 73.8125 37.09375 74.167969 38.46875 74.425781 39.863281 C 74.527344 40.449219 74.621094 41.046875 74.683594 41.644531 C 74.835938 43.097656 74.878906 44.5625 74.8125 46.023438 Z M 74.8125 46.023438 "/>
<use xlink:href="#surface14" mask="url(#mask3)"/>
<path style=" stroke:none;fill-rule:nonzero;fill:rgb(17.647059%,17.647059%,17.647059%);fill-opacity:1;" d="M 81.75 71.890625 C 81.558594 72.402344 77.898438 72.265625 74.71875 70.265625 C 71.019531 67.9375 68.246094 63.257812 68.089844 58.367188 C 67.9375 53.222656 70.769531 51.195312 69.175781 48.367188 C 68.964844 47.976562 68.675781 47.636719 68.332031 47.359375 C 67.183594 46.515625 65.589844 46.640625 62.976562 44.3125 C 61.152344 42.695312 61.117188 42.328125 57.492188 37.621094 C 56.535156 36.378906 55.46875 35.226562 54.304688 34.171875 C 49.878906 30.082031 48.136719 30.503906 47.605469 30.707031 C 46.503906 31.128906 45.964844 32.25 45.523438 33.359375 C 44.066406 37.085938 44.109375 39.710938 44.140625 42.121094 C 44.140625 44.175781 44.167969 46.074219 43.222656 48.363281 C 41.214844 53.21875 37.632812 53.359375 37.429688 57.644531 C 37.3125 60.066406 38.421875 60.597656 38.355469 63.753906 C 38.355469 64.816406 38.253906 68.757812 35.777344 71.414062 C 31.644531 75.832031 23.328125 74.027344 23.21875 73.101562 C 23.109375 72.179688 30.902344 72.257812 32.414062 68.234375 C 33.644531 64.953125 29.039062 62.476562 29.707031 56.871094 C 30.042969 54.015625 31.339844 53.785156 32.414062 50.257812 C 33.992188 45.03125 31.882812 43.085938 32.238281 38.238281 C 32.863281 29.800781 40.195312 22.628906 46.742188 19.839844 C 48.761719 18.96875 50.90625 18.421875 53.097656 18.214844 C 61.820312 17.472656 68.386719 22.8125 70.816406 25.109375 C 72.578125 26.796875 76.988281 30.996094 77.714844 37.136719 C 78.003906 39.894531 77.863281 42.679688 77.292969 45.390625 C 76.128906 51.71875 74.074219 52.4375 73.640625 57.550781 C 73.46875 59.589844 73.140625 63.546875 75.402344 66.875 C 77.84375 70.496094 81.953125 71.332031 81.75 71.890625 Z M 81.75 71.890625 "/>
</g>
</svg>
