<?xml version="1.0" encoding="UTF-8"?>
<svg xmlns="http://www.w3.org/2000/svg" xmlns:xlink="http://www.w3.org/1999/xlink" width="130px" height="130px" viewBox="0 0 130 130" version="1.1">
<g id="surface1">
<path style=" stroke:none;fill-rule:nonzero;fill:rgb(0%,0%,0%);fill-opacity:1;" d="M 27.753906 62.785156 L 27.753906 70.484375 C 27.753906 72.457031 28.710938 73.414062 30.6875 73.414062 L 31.542969 73.414062 C 33.515625 73.414062 34.472656 72.457031 34.472656 70.484375 L 34.472656 66.714844 L 38.980469 66.714844 L 38.980469 70.324219 C 38.980469 75.269531 36.488281 77.820312 31.484375 77.820312 L 30.527344 77.820312 C 25.582031 77.820312 23.027344 75.328125 23.027344 70.921875 L 23.027344 52.019531 C 23.027344 46.496094 25.519531 43.945312 30.527344 43.945312 L 31.484375 43.945312 C 36.429688 43.945312 38.980469 46.4375 38.980469 51.441406 L 38.980469 62.746094 L 27.773438 62.746094 L 27.773438 62.785156 Z M 27.753906 58.261719 L 34.394531 58.261719 L 34.394531 51.242188 C 34.394531 49.269531 33.4375 48.3125 31.464844 48.3125 L 30.726562 48.3125 C 28.75 48.3125 27.792969 49.269531 27.792969 51.242188 L 27.792969 58.261719 Z M 27.753906 58.261719 "/>
<path style=" stroke:none;fill-rule:nonzero;fill:rgb(0%,0%,0%);fill-opacity:1;" d="M 42.050781 44.34375 L 46.714844 44.34375 L 46.714844 46.476562 C 47.832031 45.300781 49.746094 43.984375 52.398438 43.984375 C 56.386719 43.984375 58.339844 46.636719 58.339844 50.523438 L 58.339844 71.242188 C 58.339844 75.167969 56.367188 77.78125 52.398438 77.78125 C 49.6875 77.78125 47.832031 76.503906 46.714844 75.386719 L 46.714844 86.074219 L 42.050781 86.074219 Z M 46.714844 71.660156 C 47.992188 72.777344 49.488281 73.355469 51.023438 73.355469 C 52.71875 73.355469 53.734375 72.558594 53.734375 70.644531 L 53.734375 51.101562 C 53.734375 49.1875 52.777344 48.390625 51.023438 48.390625 C 49.488281 48.390625 47.992188 49.027344 46.714844 50.085938 Z M 46.714844 71.660156 "/>
<path style=" stroke:none;fill-rule:nonzero;fill:rgb(0%,0%,0%);fill-opacity:1;" d="M 61.171875 65.917969 C 61.171875 61.828125 62.507812 60.175781 66.058594 58.957031 L 72.316406 56.824219 L 72.316406 51.242188 C 72.316406 49.269531 71.359375 48.210938 69.386719 48.210938 L 68.648438 48.210938 C 66.675781 48.210938 65.71875 49.269531 65.71875 51.242188 L 65.71875 55.90625 L 61.210938 55.90625 L 61.210938 51.402344 C 61.210938 46.457031 63.703125 43.90625 68.707031 43.90625 L 69.605469 43.90625 C 74.550781 43.90625 77.101562 46.398438 77.101562 51.402344 L 77.101562 77.382812 L 72.4375 77.382812 L 72.4375 75.308594 C 71.160156 76.523438 69.40625 77.761719 66.753906 77.761719 C 63.027344 77.761719 61.292969 75.628906 61.292969 71.917969 L 61.292969 65.917969 Z M 72.335938 71.820312 L 72.335938 60.933594 L 68.089844 62.527344 C 66.394531 63.226562 65.796875 64.0625 65.796875 65.976562 L 65.796875 71.019531 C 65.796875 72.617188 66.59375 73.414062 68.089844 73.414062 C 69.507812 73.355469 70.78125 72.875 72.335938 71.820312 Z M 72.335938 71.820312 "/>
<path style=" stroke:none;fill-rule:nonzero;fill:rgb(0%,0%,0%);fill-opacity:1;" d="M 95.804688 77.402344 L 91.140625 77.402344 L 91.140625 50.785156 C 91.140625 49.128906 90.34375 48.390625 88.90625 48.390625 C 87.628906 48.390625 86.253906 48.871094 84.601562 50.046875 L 84.601562 77.402344 L 79.933594 77.402344 L 79.933594 44.34375 L 84.601562 44.34375 L 84.601562 46.476562 C 85.9375 45.199219 87.730469 43.984375 90.28125 43.984375 C 92.675781 43.984375 94.269531 44.941406 95.105469 46.695312 C 96.761719 45.261719 98.714844 43.984375 101.429688 43.984375 C 105.035156 43.984375 106.890625 46.21875 106.890625 49.828125 L 106.890625 77.441406 L 102.226562 77.441406 L 102.226562 50.785156 C 102.226562 49.128906 101.429688 48.390625 99.992188 48.390625 C 98.714844 48.390625 97.339844 48.871094 95.6875 50.046875 L 95.6875 77.402344 Z M 95.804688 77.402344 "/>
<path style=" stroke:none;fill-rule:nonzero;fill:rgb(0%,70.980392%,81.960784%);fill-opacity:1;" d="M 17.128906 47.375 L 17.128906 53.476562 L 9.3125 60.914062 L 17.128906 68.25 L 17.128906 74.472656 L 5.183594 63.207031 L 5.183594 58.738281 Z M 17.128906 47.375 "/>
<path style=" stroke:none;fill-rule:nonzero;fill:rgb(0%,70.980392%,81.960784%);fill-opacity:1;" d="M 124.816406 58.738281 L 124.816406 63.207031 L 112.871094 74.472656 L 112.871094 68.25 L 120.6875 60.914062 L 112.871094 53.4375 L 112.871094 47.375 Z M 124.816406 58.738281 "/>
</g>
</svg>
