<?xml version="1.0" encoding="UTF-8"?>
<svg width="32px" height="26px" viewBox="0 0 32 26" version="1.1" xmlns="http://www.w3.org/2000/svg" xmlns:xlink="http://www.w3.org/1999/xlink">
    <!-- Generator: Sketch 61.2 (89653) - https://sketch.com -->
    <title>B</title>
    <desc>Created with Sketch.</desc>
    <g id="Symbols" stroke="none" stroke-width="1" fill="none" fill-rule="evenodd">
        <g id="header-2-copy-7" transform="translate(-44.000000, -61.000000)" fill-rule="nonzero">
            <g id="header-2">
                <g id="header">
                    <g id="B." transform="translate(44.448000, 61.800000)">
                        <path style=" stroke:none;fill-rule:nonzero;fill:rgb(0%,0%,0%);fill-opacity:1;" d="M 12.5 0.0429688 C 12.296875 0.117188 12.175781 0.191406 11.992188 0.375 C 11.722656 0.636719 11.507812 1 11.371094 1.433594 C 11.308594 1.628906 8.335938 12.808594 8.335938 12.851562 C 8.335938 12.859375 8.324219 12.855469 8.316406 12.835938 C 8.304688 12.820312 7.699219 10.921875 6.964844 8.613281 C 5.964844 5.460938 5.613281 4.375 5.542969 4.234375 C 5.390625 3.929688 5.132812 3.667969 4.910156 3.597656 C 4.871094 3.585938 4.140625 3.382812 3.285156 3.144531 C 1.59375 2.679688 1.574219 2.675781 1.328125 2.75 C 0.972656 2.851562 0.621094 3.195312 0.375 3.675781 C 0.00390625 4.398438 -0.105469 5.386719 0.113281 6.117188 C 0.140625 6.210938 1.445312 10.332031 3.015625 15.273438 C 4.972656 21.4375 5.894531 24.316406 5.953125 24.433594 C 6.109375 24.761719 6.300781 24.96875 6.539062 25.078125 C 6.714844 25.15625 9.738281 25.980469 9.890625 25.992188 C 10.164062 26.015625 10.429688 25.894531 10.699219 25.632812 C 10.96875 25.378906 11.160156 25.054688 11.308594 24.636719 C 11.398438 24.375 16.902344 3.636719 16.953125 3.371094 C 17.003906 3.105469 17.003906 2.460938 16.953125 2.203125 C 16.828125 1.550781 16.53125 1.078125 16.140625 0.910156 C 16.09375 0.890625 15.359375 0.679688 14.5 0.445312 C 12.765625 -0.0351562 12.742188 -0.0390625 12.5 0.0429688 Z M 12.5 0.0429688" fill="#282642"/><path d="M30.42,25.2 C30.684,25.2 30.9,25.11 31.068,24.93 C31.236,24.75 31.32,24.54 31.32,24.3 L31.32,24.3 L31.32,19.548 C31.32,19.284 31.236,19.062 31.068,18.882 C30.9,18.702 30.684,18.612 30.42,18.612 L30.42,18.612 L25.668,18.612 C25.404,18.612 25.182,18.702 25.002,18.882 C24.822,19.062 24.732,19.284 24.732,19.548 L24.732,19.548 L24.732,24.3 C24.732,24.564 24.822,24.78 25.002,24.948 C25.182,25.116 25.404,25.2 25.668,25.2 L25.668,25.2 L30.42,25.2 Z" id="." fill="#FF4C60"></path>
                    </g>
                </g>
            </g>
        </g>
    </g>
</svg>