<?xml version="1.0" encoding="UTF-8"?>
<!DOCTYPE svg PUBLIC "-//W3C//DTD SVG 1.1//EN" "http://www.w3.org/Graphics/SVG/1.1/DTD/svg11.dtd">
<svg xmlns="http://www.w3.org/2000/svg" version="1.1" width="500px" height="500px" style="shape-rendering:geometricPrecision; text-rendering:geometricPrecision; image-rendering:optimizeQuality; fill-rule:evenodd; clip-rule:evenodd" xmlns:xlink="http://www.w3.org/1999/xlink">
<g><path style="opacity:1" fill="#fefefe" d="M -0.5,-0.5 C 166.167,-0.5 332.833,-0.5 499.5,-0.5C 499.5,166.167 499.5,332.833 499.5,499.5C 332.833,499.5 166.167,499.5 -0.5,499.5C -0.5,332.833 -0.5,166.167 -0.5,-0.5 Z"/></g>
<g><path style="opacity:1" fill="#292743" d="M 115.5,76.5 C 146.833,76.5 178.167,76.5 209.5,76.5C 209.5,77.5 209.5,78.5 209.5,79.5C 199.372,78.4065 190.038,80.5732 181.5,86C 174.823,92.8458 172.657,101.012 175,110.5C 175.921,115.932 177.255,121.265 179,126.5C 205.333,195.5 231.667,264.5 258,333.5C 260.727,327.321 263.06,320.987 265,314.5C 266.133,312.789 267.633,312.289 269.5,313C 262.696,331.079 255.696,349.079 248.5,367C 247.552,367.483 246.552,367.649 245.5,367.5C 213.364,280.929 180.531,194.596 147,108.5C 143.288,100.235 138.455,92.7348 132.5,86C 127.674,81.585 122.007,79.4183 115.5,79.5C 115.5,78.5 115.5,77.5 115.5,76.5 Z"/></g>
<g><path style="opacity:1" fill="#2a2743" d="M 298.5,76.5 C 325.5,76.5 352.5,76.5 379.5,76.5C 379.5,77.5 379.5,78.5 379.5,79.5C 370.078,79.7261 362.578,83.7261 357,91.5C 353.152,97.8691 349.319,104.202 345.5,110.5C 341.944,109.26 338.444,107.927 335,106.5C 333.718,93.5499 326.884,85.0499 314.5,81C 309.22,79.9054 303.887,79.4054 298.5,79.5C 298.5,78.5 298.5,77.5 298.5,76.5 Z"/></g>
<g><path style="opacity:1" fill="#ffa8b1" d="M 330.5,149.5 C 329.833,151.5 329.167,153.5 328.5,155.5C 328.334,151.486 328.501,147.486 329,143.5C 330.128,145.345 330.628,147.345 330.5,149.5 Z"/></g>
<g><path style="opacity:1" fill="#fffafa" d="M 300.5,153.5 C 303.093,163.341 304.26,173.341 304,183.5C 303.722,182.584 303.222,181.918 302.5,181.5C 299.808,173.563 298.142,165.396 297.5,157C 297.833,155.5 298.167,154 298.5,152.5C 299.183,152.863 299.85,153.196 300.5,153.5 Z"/></g>
<g><path style="opacity:1" fill="#ff8d97" d="M 300.5,153.5 C 302.93,158.093 304.43,163.093 305,168.5C 305.567,173.834 306.067,179.167 306.5,184.5C 305.5,184.833 304.833,185.5 304.5,186.5C 303.069,185.22 302.402,183.553 302.5,181.5C 303.222,181.918 303.722,182.584 304,183.5C 304.26,173.341 303.093,163.341 300.5,153.5 Z"/></g>
<g><path style="opacity:1" fill="#ff7f8b" d="M 330.5,149.5 C 330.5,152.167 330.5,154.833 330.5,157.5C 326.513,157.348 325.013,155.348 326,151.5C 326.608,153.066 327.442,154.4 328.5,155.5C 329.167,153.5 329.833,151.5 330.5,149.5 Z"/></g>
<g><path style="opacity:1" fill="#ff838e" d="M 300.5,153.5 C 299.85,153.196 299.183,152.863 298.5,152.5C 298.167,154 297.833,155.5 297.5,157C 298.142,165.396 299.808,173.563 302.5,181.5C 297.41,172.211 295.577,162.211 297,151.5C 299.149,150.16 300.316,150.827 300.5,153.5 Z"/></g>
<g><path style="opacity:1" fill="#ff6e7c" d="M 318.5,190.5 C 317.391,190.443 316.391,190.11 315.5,189.5C 314.992,186.824 314.825,184.157 315,181.5C 315.333,181.167 315.667,180.833 316,180.5C 319.499,184.463 320.999,183.463 320.5,177.5C 320.653,174.294 319.986,171.294 318.5,168.5C 319.415,167.672 320.081,166.672 320.5,165.5C 321.163,162.194 321.663,158.861 322,155.5C 323.58,159.633 323.746,163.8 322.5,168C 322.657,170.637 323.323,173.137 324.5,175.5C 323.726,176.711 322.893,176.711 322,175.5C 321.502,178.482 321.335,181.482 321.5,184.5C 320.127,184.343 318.793,184.51 317.5,185C 318.406,186.699 318.739,188.533 318.5,190.5 Z"/></g>
<g><path style="opacity:1" fill="#ff7b88" d="M 295.5,178.5 C 294.596,179.209 294.263,180.209 294.5,181.5C 292.674,179.545 292.174,177.212 293,174.5C 294.095,175.693 294.928,177.027 295.5,178.5 Z"/></g>
<g><path style="opacity:1" fill="#ffbec4" d="M 295.5,178.5 C 298.01,182.187 300.01,186.187 301.5,190.5C 300.883,190.611 300.383,190.944 300,191.5C 298.392,187.944 296.559,184.611 294.5,181.5C 294.263,180.209 294.596,179.209 295.5,178.5 Z"/></g>
<g><path style="opacity:1" fill="#ff6575" d="M 306.5,184.5 C 306.689,188.878 308.022,192.878 310.5,196.5C 310.973,197.906 311.973,198.573 313.5,198.5C 314.323,200.455 314.49,202.455 314,204.5C 311.653,201.806 309.82,198.806 308.5,195.5C 308.123,193.176 307.123,192.509 305.5,193.5C 305.552,191.097 305.219,188.764 304.5,186.5C 304.833,185.5 305.5,184.833 306.5,184.5 Z"/></g>
<g><path style="opacity:1" fill="#ff97a1" d="M 315.5,189.5 C 316.391,190.11 317.391,190.443 318.5,190.5C 317.631,192.717 317.298,195.05 317.5,197.5C 316.178,197.67 315.011,197.337 314,196.5C 313.536,197.094 313.369,197.761 313.5,198.5C 311.973,198.573 310.973,197.906 310.5,196.5C 311.161,195.282 311.828,193.949 312.5,192.5C 313.478,192.977 314.311,193.643 315,194.5C 315.494,192.866 315.66,191.199 315.5,189.5 Z"/></g>
<g><path style="opacity:1" fill="#ff7381" d="M 294.5,181.5 C 296.559,184.611 298.392,187.944 300,191.5C 300.383,190.944 300.883,190.611 301.5,190.5C 302.323,193.461 302.99,196.461 303.5,199.5C 299.46,194.086 296.46,188.086 294.5,181.5 Z"/></g>
<g><path style="opacity:1" fill="#ffadb6" d="M 308.5,195.5 C 307.837,197.042 307.17,198.709 306.5,200.5C 305.526,198.257 305.192,195.924 305.5,193.5C 307.123,192.509 308.123,193.176 308.5,195.5 Z"/></g>
<g><path style="opacity:1" fill="#ff6776" d="M 303.5,199.5 C 306.908,205.427 310.575,211.26 314.5,217C 313.551,217.617 312.718,217.451 312,216.5C 310.333,213.833 308.667,211.167 307,208.5C 306.982,210.797 307.149,213.131 307.5,215.5C 307.565,215.938 307.399,216.272 307,216.5C 306.52,214.867 305.687,213.534 304.5,212.5C 304.804,211.85 305.137,211.183 305.5,210.5C 304.51,206.895 303.844,203.228 303.5,199.5 Z"/></g>
<g><path style="opacity:1" fill="#ffa9b2" d="M 304.5,212.5 C 305.687,213.534 306.52,214.867 307,216.5C 307.399,216.272 307.565,215.938 307.5,215.5C 308.404,216.209 308.737,217.209 308.5,218.5C 307.883,218.611 307.383,218.944 307,219.5C 306.148,218.429 305.315,217.429 304.5,216.5C 303.314,215.039 303.314,213.705 304.5,212.5 Z"/></g>
<g><path style="opacity:1" fill="#ff5f71" d="M 304.5,216.5 C 305.315,217.429 306.148,218.429 307,219.5C 307.383,218.944 307.883,218.611 308.5,218.5C 308.768,220.099 308.434,221.432 307.5,222.5C 306.833,221.167 305.833,220.167 304.5,219.5C 304.5,218.5 304.5,217.5 304.5,216.5 Z"/></g>
<g><path style="opacity:1" fill="#ff8b96" d="M 304.5,219.5 C 305.833,220.167 306.833,221.167 307.5,222.5C 306.746,225.023 306.08,227.689 305.5,230.5C 304.397,230.998 303.397,231.331 302.5,231.5C 303.706,233.516 303.706,235.516 302.5,237.5C 300.896,235.102 299.896,232.435 299.5,229.5C 300.489,225.855 301.989,225.855 304,229.5C 304.498,226.183 304.665,222.85 304.5,219.5 Z"/></g>
<g><path style="opacity:1" fill="#ffb6bc" d="M 281.5,228.5 C 283.732,231.841 285.398,235.508 286.5,239.5C 283.467,236.472 281.134,232.805 279.5,228.5C 279.97,227.537 280.637,227.537 281.5,228.5 Z"/></g>
<g><path style="opacity:1" fill="#ff6f7d" d="M 281.5,228.5 C 280.637,227.537 279.97,227.537 279.5,228.5C 281.134,232.805 283.467,236.472 286.5,239.5C 289.158,248.482 293.158,256.815 298.5,264.5C 298.154,265.696 297.654,265.696 297,264.5C 295,261.167 293,257.833 291,254.5C 287.232,246.963 282.898,238.296 278,228.5C 277.654,226.782 277.154,225.115 276.5,223.5C 276.833,223.167 277.167,222.833 277.5,222.5C 279.833,223.832 281.166,225.832 281.5,228.5 Z"/></g>
<g><path style="opacity:1" fill="#ff96a0" d="M 282.5,266.5 C 284.337,266.639 284.67,267.306 283.5,268.5C 282.702,268.043 282.369,267.376 282.5,266.5 Z"/></g>
<g><path style="opacity:1" fill="#ff6f7d" d="M 284.5,283.5 C 284.999,279.51 285.499,275.51 286,271.5C 287,273.167 288,274.833 289,276.5C 289.409,270.49 289.242,264.49 288.5,258.5C 289.5,258.5 290.5,258.5 291.5,258.5C 291.649,259.552 291.483,260.552 291,261.5C 290.111,260.112 289.611,260.278 289.5,262C 290.479,267.436 291.312,267.602 292,262.5C 292.167,263.667 292.333,264.833 292.5,266C 290.985,269.295 289.985,273.462 289.5,278.5C 288.833,278.167 288.167,277.833 287.5,277.5C 286.792,279.745 285.792,281.745 284.5,283.5 Z"/></g>
<g><path style="opacity:1" fill="#fff6f6" d="M 322.5,311.5 C 320.992,309.819 319.992,307.819 319.5,305.5C 316.711,297.967 314.211,290.3 312,282.5C 310.838,277.875 310.504,273.208 311,268.5C 318.759,282.214 323.093,296.881 324,312.5C 323.617,311.944 323.117,311.611 322.5,311.5 Z"/></g>
<g><path style="opacity:1" fill="#ff8893" d="M 322.5,311.5 C 323.117,311.611 323.617,311.944 324,312.5C 323.093,296.881 318.759,282.214 311,268.5C 310.504,273.208 310.838,277.875 312,282.5C 314.211,290.3 316.711,297.967 319.5,305.5C 316.344,300.226 313.844,294.559 312,288.5C 310.308,279.887 308.975,271.22 308,262.5C 305.333,257.167 302.667,251.833 300,246.5C 298.687,251.468 296.854,251.468 294.5,246.5C 295.631,245.396 296.465,245.729 297,247.5C 297.281,244.903 297.448,242.57 297.5,240.5C 301.252,246.336 304.752,252.336 308,258.5C 308.785,253.124 309.785,247.791 311,242.5C 311.669,239.733 312.836,239.233 314.5,241C 310.859,248.725 309.692,256.892 311,265.5C 319.696,281.088 324.863,297.754 326.5,315.5C 323.858,315.512 322.525,314.179 322.5,311.5 Z"/></g>
<g><path style="opacity:1" fill="#ff7886" d="M 284.5,283.5 C 284.193,286.28 283.193,288.78 281.5,291C 282.414,292.406 283.08,293.906 283.5,295.5C 281.855,294.521 280.521,293.188 279.5,291.5C 281.192,288.769 282.858,286.102 284.5,283.5 Z"/></g>
<g><path style="opacity:1" fill="#ff7786" d="M 283.5,295.5 C 286.14,296.794 286.14,298.127 283.5,299.5C 280.736,298.239 278.403,296.405 276.5,294C 277.167,293.333 277.833,293.333 278.5,294C 279.685,295.353 281.019,296.52 282.5,297.5C 283.298,297.043 283.631,296.376 283.5,295.5 Z"/></g>
</svg>
