<?xml version="1.0" encoding="UTF-8"?>
<svg xmlns="http://www.w3.org/2000/svg" xmlns:xlink="http://www.w3.org/1999/xlink" width="134px" height="134px" viewBox="0 0 134 134" version="1.1">
<g id="surface1">
<path style=" stroke:none;fill-rule:nonzero;fill:rgb(93.333333%,0%,0%);fill-opacity:1;" d="M 29.777344 68.085938 C 32.308594 68.085938 35.945312 67.574219 35.945312 64.574219 C 35.945312 64.351562 35.925781 64.101562 35.882812 63.878906 L 34.382812 57.363281 C 34.035156 55.921875 33.730469 55.289062 31.214844 54.011719 C 29.265625 53.003906 25.015625 51.363281 23.738281 51.363281 C 22.566406 51.363281 22.21875 52.878906 20.820312 52.878906 C 19.464844 52.878906 18.476562 51.75 17.222656 51.75 C 16.011719 51.75 15.230469 52.574219 14.609375 54.28125 C 14.609375 54.28125 12.929688 59.070312 12.699219 59.742188 C 12.660156 59.867188 12.660156 60.011719 12.660156 60.136719 C 12.660156 61.988281 19.976562 68.066406 29.777344 68.085938 M 36.332031 65.789062 C 36.6875 67.433594 36.6875 67.613281 36.6875 67.824219 C 36.6875 70.636719 33.519531 72.203125 29.34375 72.203125 C 19.917969 72.203125 11.671875 66.691406 11.671875 63.035156 C 11.671875 62.519531 11.777344 62.027344 11.980469 61.554688 C 8.589844 61.71875 4.214844 62.335938 4.214844 66.195312 C 4.214844 72.546875 19.234375 80.359375 31.15625 80.359375 C 40.285156 80.359375 42.582031 76.226562 42.582031 72.980469 C 42.5625 70.433594 40.34375 67.515625 36.332031 65.789062 "/>
<path style=" stroke:none;fill-rule:nonzero;fill:rgb(0%,0%,0%);fill-opacity:1;" d="M 36.332031 65.789062 C 36.6875 67.433594 36.6875 67.613281 36.6875 67.824219 C 36.6875 70.636719 33.519531 72.203125 29.34375 72.203125 C 19.917969 72.203125 11.671875 66.691406 11.671875 63.035156 C 11.671875 62.519531 11.777344 62.027344 11.980469 61.554688 L 12.71875 59.722656 C 12.679688 59.847656 12.679688 59.972656 12.679688 60.117188 C 12.679688 61.960938 19.996094 68.066406 29.804688 68.066406 C 32.328125 68.066406 35.964844 67.554688 35.964844 64.554688 C 35.964844 64.332031 35.945312 64.082031 35.90625 63.851562 Z M 36.332031 65.789062 "/>
<path style=" stroke:none;fill-rule:nonzero;fill:rgb(0%,0%,0%);fill-opacity:1;" d="M 120.945312 69.957031 C 120.945312 72.367188 122.386719 73.515625 125.015625 73.515625 C 125.820312 73.496094 126.621094 73.371094 127.425781 73.183594 L 127.425781 70.410156 C 126.925781 70.578125 126.398438 70.65625 125.878906 70.636719 C 124.792969 70.636719 124.402344 70.3125 124.402344 69.285156 L 124.402344 65.023438 L 127.546875 65.023438 L 127.546875 62.171875 L 124.402344 62.171875 L 124.402344 58.535156 L 120.972656 59.273438 L 120.972656 62.152344 L 118.6875 62.152344 L 118.6875 65.003906 L 120.945312 65.003906 Z M 110.261719 70.023438 C 110.261719 69.285156 111 68.910156 112.132812 68.910156 C 112.8125 68.910156 113.507812 68.996094 114.167969 69.160156 L 114.167969 70.597656 C 113.507812 70.945312 112.769531 71.128906 112.027344 71.128906 C 110.921875 71.15625 110.261719 70.722656 110.261719 70.023438 M 111.308594 73.554688 C 112.527344 73.554688 113.488281 73.308594 114.417969 72.691406 L 114.417969 73.371094 L 117.804688 73.371094 L 117.804688 66.175781 C 117.804688 63.445312 115.953125 61.941406 112.890625 61.941406 C 111.164062 61.941406 109.484375 62.355469 107.652344 63.179688 L 108.886719 65.703125 C 110.203125 65.148438 111.308594 64.820312 112.277344 64.820312 C 113.695312 64.820312 114.417969 65.378906 114.417969 66.484375 L 114.417969 67.039062 C 113.59375 66.835938 112.730469 66.710938 111.863281 66.730469 C 108.984375 66.730469 107.238281 67.941406 107.238281 70.101562 C 107.238281 72.078125 108.804688 73.574219 111.308594 73.554688 M 92.667969 73.371094 L 96.304688 73.371094 L 96.304688 67.554688 L 102.410156 67.554688 L 102.410156 73.371094 L 106.066406 73.371094 L 106.066406 58.535156 L 102.429688 58.535156 L 102.429688 64.226562 L 96.324219 64.226562 L 96.324219 58.535156 L 92.6875 58.535156 Z M 78.796875 67.757812 C 78.796875 66.15625 80.074219 64.925781 81.734375 64.925781 C 82.597656 64.90625 83.460938 65.214844 84.097656 65.789062 L 84.097656 69.714844 C 83.460938 70.3125 82.597656 70.636719 81.734375 70.617188 C 80.09375 70.597656 78.796875 69.382812 78.796875 67.757812 M 84.164062 73.390625 L 87.550781 73.390625 L 87.550781 57.8125 L 84.121094 58.554688 L 84.121094 62.765625 C 83.257812 62.277344 82.269531 62.007812 81.265625 62.027344 C 77.992188 62.027344 75.425781 64.554688 75.425781 67.757812 C 75.386719 70.90625 77.914062 73.496094 81.0625 73.515625 C 81.101562 73.515625 81.121094 73.515625 81.160156 73.515625 C 82.25 73.515625 83.296875 73.183594 84.164062 72.546875 Z M 68.582031 64.761719 C 69.667969 64.761719 70.578125 65.457031 70.925781 66.546875 L 66.242188 66.546875 C 66.609375 65.417969 67.453125 64.761719 68.582031 64.761719 M 62.804688 67.777344 C 62.804688 71.050781 65.480469 73.59375 68.910156 73.59375 C 70.800781 73.59375 72.183594 73.085938 73.59375 71.894531 L 71.339844 69.878906 C 70.800781 70.433594 70.023438 70.722656 69.09375 70.722656 C 67.902344 70.761719 66.796875 70.042969 66.339844 68.929688 L 74.335938 68.929688 L 74.335938 68.085938 C 74.335938 64.535156 71.933594 61.960938 68.6875 61.960938 C 65.5 61.921875 62.890625 64.453125 62.84375 67.632812 C 62.804688 67.679688 62.804688 67.738281 62.804688 67.777344 M 56.910156 61.65625 C 58.121094 61.65625 58.800781 62.421875 58.800781 63.324219 C 58.800781 64.226562 58.121094 64.984375 56.910156 64.984375 L 53.3125 64.984375 L 53.3125 61.65625 Z M 49.65625 73.371094 L 53.292969 73.371094 L 53.292969 67.96875 L 56.066406 67.96875 L 58.859375 73.371094 L 62.949219 73.371094 L 59.683594 67.433594 C 61.386719 66.730469 62.480469 65.089844 62.480469 63.257812 C 62.480469 60.585938 60.386719 58.535156 57.238281 58.535156 L 49.636719 58.535156 L 49.636719 73.371094 Z M 49.65625 73.371094 "/>
</g>
</svg>
