<?xml version="1.0" encoding="UTF-8"?>
<svg xmlns="http://www.w3.org/2000/svg" xmlns:xlink="http://www.w3.org/1999/xlink" width="80px" height="80px" viewBox="0 0 80 80" version="1.1">
<g id="surface1">
<path style=" stroke:none;fill-rule:nonzero;fill:rgb(93.333333%,0%,0%);fill-opacity:1;" d="M 17.777344 40.648438 C 19.289062 40.648438 21.460938 40.34375 21.460938 38.550781 C 21.460938 38.417969 21.449219 38.269531 21.421875 38.136719 L 20.527344 34.246094 C 20.320312 33.386719 20.136719 33.007812 18.636719 32.246094 C 17.472656 31.644531 14.933594 30.664062 14.171875 30.664062 C 13.472656 30.664062 13.265625 31.570312 12.429688 31.570312 C 11.621094 31.570312 11.03125 30.894531 10.28125 30.894531 C 9.558594 30.894531 9.09375 31.386719 8.722656 32.40625 C 8.722656 32.40625 7.71875 35.265625 7.582031 35.667969 C 7.558594 35.742188 7.558594 35.828125 7.558594 35.902344 C 7.558594 37.007812 11.925781 40.636719 17.777344 40.648438 M 21.691406 39.277344 C 21.902344 40.257812 21.902344 40.367188 21.902344 40.492188 C 21.902344 42.171875 20.011719 43.105469 17.519531 43.105469 C 11.890625 43.105469 6.96875 39.816406 6.96875 37.632812 C 6.96875 37.324219 7.03125 37.03125 7.152344 36.75 C 5.128906 36.847656 2.515625 37.214844 2.515625 39.519531 C 2.515625 43.3125 11.484375 47.976562 18.601562 47.976562 C 24.050781 47.976562 25.421875 45.507812 25.421875 43.570312 C 25.410156 42.050781 24.085938 40.308594 21.691406 39.277344 "/>
<path style=" stroke:none;fill-rule:nonzero;fill:rgb(0%,0%,0%);fill-opacity:1;" d="M 21.691406 39.277344 C 21.902344 40.257812 21.902344 40.367188 21.902344 40.492188 C 21.902344 42.171875 20.011719 43.105469 17.519531 43.105469 C 11.890625 43.105469 6.96875 39.816406 6.96875 37.632812 C 6.96875 37.324219 7.03125 37.03125 7.152344 36.75 L 7.59375 35.65625 C 7.570312 35.730469 7.570312 35.804688 7.570312 35.890625 C 7.570312 36.992188 11.9375 40.636719 17.792969 40.636719 C 19.300781 40.636719 21.472656 40.332031 21.472656 38.539062 C 21.472656 38.40625 21.460938 38.257812 21.4375 38.121094 Z M 21.691406 39.277344 "/>
<path style=" stroke:none;fill-rule:nonzero;fill:rgb(0%,0%,0%);fill-opacity:1;" d="M 72.207031 41.765625 C 72.207031 43.203125 73.066406 43.890625 74.636719 43.890625 C 75.117188 43.878906 75.59375 43.804688 76.074219 43.691406 L 76.074219 42.035156 C 75.777344 42.136719 75.460938 42.183594 75.152344 42.171875 C 74.503906 42.171875 74.269531 41.976562 74.269531 41.363281 L 74.269531 38.820312 L 76.148438 38.820312 L 76.148438 37.117188 L 74.269531 37.117188 L 74.269531 34.945312 L 72.222656 35.386719 L 72.222656 37.105469 L 70.859375 37.105469 L 70.859375 38.808594 L 72.207031 38.808594 Z M 65.828125 41.804688 C 65.828125 41.363281 66.269531 41.140625 66.945312 41.140625 C 67.351562 41.140625 67.765625 41.191406 68.160156 41.289062 L 68.160156 42.148438 C 67.765625 42.355469 67.324219 42.464844 66.882812 42.464844 C 66.222656 42.480469 65.828125 42.222656 65.828125 41.804688 M 66.453125 43.914062 C 67.179688 43.914062 67.753906 43.765625 68.308594 43.398438 L 68.308594 43.804688 L 70.332031 43.804688 L 70.332031 39.507812 C 70.332031 37.878906 69.226562 36.980469 67.398438 36.980469 C 66.367188 36.980469 65.363281 37.226562 64.269531 37.71875 L 65.007812 39.226562 C 65.792969 38.894531 66.453125 38.699219 67.03125 38.699219 C 67.878906 38.699219 68.308594 39.03125 68.308594 39.691406 L 68.308594 40.023438 C 67.816406 39.902344 67.300781 39.828125 66.785156 39.839844 C 65.066406 39.839844 64.023438 40.5625 64.023438 41.851562 C 64.023438 43.03125 64.957031 43.925781 66.453125 43.914062 M 55.324219 43.804688 L 57.496094 43.804688 L 57.496094 40.332031 L 61.140625 40.332031 L 61.140625 43.804688 L 63.324219 43.804688 L 63.324219 34.945312 L 61.152344 34.945312 L 61.152344 38.34375 L 57.507812 38.34375 L 57.507812 34.945312 L 55.335938 34.945312 Z M 47.042969 40.453125 C 47.042969 39.496094 47.804688 38.761719 48.796875 38.761719 C 49.3125 38.75 49.828125 38.933594 50.207031 39.277344 L 50.207031 41.621094 C 49.828125 41.976562 49.3125 42.171875 48.796875 42.160156 C 47.816406 42.148438 47.042969 41.421875 47.042969 40.453125 M 50.246094 43.816406 L 52.269531 43.816406 L 52.269531 34.515625 L 50.222656 34.957031 L 50.222656 37.472656 C 49.707031 37.179688 49.117188 37.019531 48.515625 37.03125 C 46.5625 37.03125 45.03125 38.539062 45.03125 40.453125 C 45.007812 42.332031 46.515625 43.878906 48.394531 43.890625 C 48.417969 43.890625 48.429688 43.890625 48.453125 43.890625 C 49.105469 43.890625 49.730469 43.691406 50.246094 43.3125 Z M 40.945312 38.664062 C 41.59375 38.664062 42.136719 39.078125 42.34375 39.730469 L 39.546875 39.730469 C 39.765625 39.054688 40.269531 38.664062 40.945312 38.664062 M 37.496094 40.464844 C 37.496094 42.417969 39.09375 43.9375 41.140625 43.9375 C 42.269531 43.9375 43.09375 43.632812 43.9375 42.921875 L 42.589844 41.71875 C 42.269531 42.050781 41.804688 42.222656 41.25 42.222656 C 40.539062 42.246094 39.878906 41.816406 39.605469 41.152344 L 44.378906 41.152344 L 44.378906 40.648438 C 44.378906 38.527344 42.945312 36.992188 41.007812 36.992188 C 39.105469 36.96875 37.546875 38.480469 37.519531 40.378906 C 37.496094 40.40625 37.496094 40.441406 37.496094 40.464844 M 33.976562 36.808594 C 34.699219 36.808594 35.105469 37.265625 35.105469 37.804688 C 35.105469 38.34375 34.699219 38.796875 33.976562 38.796875 L 31.828125 38.796875 L 31.828125 36.808594 Z M 29.644531 43.804688 L 31.816406 43.804688 L 31.816406 40.578125 L 33.472656 40.578125 L 35.140625 43.804688 L 37.582031 43.804688 L 35.632812 40.257812 C 36.648438 39.839844 37.300781 38.859375 37.300781 37.765625 C 37.300781 36.171875 36.050781 34.945312 34.171875 34.945312 L 29.632812 34.945312 L 29.632812 43.804688 Z M 29.644531 43.804688 "/>
</g>
</svg>
