<?xml version="1.0" encoding="UTF-8"?>
<svg xmlns="http://www.w3.org/2000/svg" xmlns:xlink="http://www.w3.org/1999/xlink" width="80px" height="48px" viewBox="0 0 80 48" version="1.1">
<g id="surface1">
<path style=" stroke:none;fill-rule:nonzero;fill:rgb(14.509804%,18.431373%,24.313725%);fill-opacity:1;" d="M 22.664062 17.433594 C 22.664062 18.421875 22.769531 19.222656 22.953125 19.808594 C 23.167969 20.394531 23.429688 21.039062 23.800781 21.730469 C 23.933594 21.945312 23.984375 22.15625 23.984375 22.34375 C 23.984375 22.613281 23.828125 22.878906 23.484375 23.148438 L 21.820312 24.265625 C 21.582031 24.425781 21.34375 24.507812 21.132812 24.507812 C 20.871094 24.507812 20.605469 24.371094 20.339844 24.132812 C 19.972656 23.734375 19.65625 23.304688 19.390625 22.878906 C 19.125 22.425781 18.863281 21.917969 18.570312 21.304688 C 16.511719 23.757812 13.925781 24.988281 10.808594 24.988281 C 8.589844 24.988281 6.820312 24.347656 5.527344 23.066406 C 4.234375 21.785156 3.574219 20.078125 3.574219 17.941406 C 3.574219 15.671875 4.367188 13.832031 5.976562 12.441406 C 7.585938 11.054688 9.726562 10.359375 12.445312 10.359375 C 13.34375 10.359375 14.269531 10.4375 15.246094 10.574219 C 16.222656 10.707031 17.226562 10.917969 18.28125 11.160156 L 18.28125 9.210938 C 18.28125 7.183594 17.859375 5.769531 17.039062 4.941406 C 16.195312 4.113281 14.769531 3.710938 12.734375 3.710938 C 11.8125 3.710938 10.859375 3.820312 9.882812 4.058594 C 8.90625 4.300781 7.957031 4.59375 7.03125 4.964844 C 6.609375 5.152344 6.292969 5.261719 6.109375 5.316406 C 5.921875 5.367188 5.789062 5.394531 5.6875 5.394531 C 5.316406 5.394531 5.128906 5.128906 5.128906 4.566406 L 5.128906 3.261719 C 5.128906 2.832031 5.183594 2.511719 5.316406 2.324219 C 5.449219 2.136719 5.6875 1.949219 6.054688 1.765625 C 6.980469 1.285156 8.085938 0.882812 9.382812 0.5625 C 10.675781 0.214844 12.050781 0.0546875 13.5 0.0546875 C 16.644531 0.0546875 18.941406 0.777344 20.417969 2.21875 C 21.871094 3.660156 22.613281 5.847656 22.613281 8.785156 L 22.613281 17.433594 Z M 11.941406 21.488281 C 12.816406 21.488281 13.710938 21.332031 14.664062 21.007812 C 15.613281 20.691406 16.460938 20.101562 17.171875 19.300781 C 17.59375 18.792969 17.910156 18.234375 18.070312 17.59375 C 18.226562 16.953125 18.335938 16.179688 18.335938 15.273438 L 18.335938 14.148438 C 17.566406 13.964844 16.75 13.800781 15.90625 13.695312 C 15.0625 13.589844 14.238281 13.535156 13.421875 13.535156 C 11.652344 13.535156 10.359375 13.882812 9.488281 14.605469 C 8.617188 15.324219 8.195312 16.339844 8.195312 17.675781 C 8.195312 18.929688 8.511719 19.863281 9.167969 20.503906 C 9.804688 21.171875 10.730469 21.488281 11.941406 21.488281 Z M 33.148438 24.371094 C 32.671875 24.371094 32.355469 24.292969 32.144531 24.109375 C 31.933594 23.945312 31.75 23.574219 31.589844 23.066406 L 25.386719 2.429688 C 25.226562 1.898438 25.148438 1.550781 25.148438 1.363281 C 25.148438 0.9375 25.355469 0.695312 25.78125 0.695312 L 28.367188 0.695312 C 28.867188 0.695312 29.214844 0.777344 29.398438 0.964844 C 29.609375 1.121094 29.765625 1.496094 29.925781 2.003906 L 34.363281 19.675781 L 38.480469 2.003906 C 38.613281 1.46875 38.769531 1.121094 38.984375 0.964844 C 39.195312 0.804688 39.5625 0.695312 40.039062 0.695312 L 42.152344 0.695312 C 42.652344 0.695312 42.996094 0.777344 43.207031 0.964844 C 43.417969 1.121094 43.605469 1.496094 43.710938 2.003906 L 47.882812 19.890625 L 52.449219 2.003906 C 52.609375 1.46875 52.792969 1.121094 52.976562 0.964844 C 53.191406 0.804688 53.53125 0.695312 54.007812 0.695312 L 56.464844 0.695312 C 56.886719 0.695312 57.125 0.910156 57.125 1.363281 C 57.125 1.496094 57.097656 1.632812 57.070312 1.789062 C 57.046875 1.949219 56.992188 2.164062 56.886719 2.457031 L 50.523438 23.09375 C 50.363281 23.628906 50.179688 23.972656 49.96875 24.132812 C 49.757812 24.292969 49.414062 24.402344 48.964844 24.402344 L 46.691406 24.402344 C 46.191406 24.402344 45.847656 24.320312 45.636719 24.132812 C 45.425781 23.945312 45.242188 23.597656 45.136719 23.066406 L 41.042969 5.847656 L 36.976562 23.039062 C 36.84375 23.574219 36.6875 23.921875 36.472656 24.109375 C 36.265625 24.292969 35.894531 24.371094 35.417969 24.371094 Z M 67.082031 25.09375 C 65.707031 25.09375 64.332031 24.933594 63.011719 24.613281 C 61.691406 24.292969 60.664062 23.945312 59.976562 23.546875 C 59.554688 23.304688 59.261719 23.039062 59.15625 22.796875 C 59.050781 22.558594 59 22.292969 59 22.050781 L 59 20.691406 C 59 20.128906 59.210938 19.863281 59.605469 19.863281 C 59.765625 19.863281 59.921875 19.890625 60.082031 19.941406 C 60.238281 19.996094 60.476562 20.101562 60.742188 20.210938 C 61.640625 20.609375 62.617188 20.929688 63.648438 21.144531 C 64.703125 21.355469 65.730469 21.464844 66.789062 21.464844 C 68.453125 21.464844 69.746094 21.171875 70.644531 20.582031 C 71.542969 19.996094 72.015625 19.140625 72.015625 18.046875 C 72.015625 17.300781 71.78125 16.683594 71.304688 16.179688 C 70.832031 15.671875 69.933594 15.21875 68.636719 14.792969 L 64.808594 13.589844 C 62.878906 12.976562 61.457031 12.066406 60.582031 10.867188 C 59.714844 9.691406 59.261719 8.382812 59.261719 6.996094 C 59.261719 5.875 59.5 4.886719 59.976562 4.035156 C 60.453125 3.179688 61.085938 2.429688 61.878906 1.84375 C 62.671875 1.230469 63.566406 0.777344 64.625 0.457031 C 65.679688 0.136719 66.789062 0.00390625 67.949219 0.00390625 C 68.53125 0.00390625 69.140625 0.0273438 69.71875 0.109375 C 70.328125 0.191406 70.882812 0.296875 71.4375 0.402344 C 71.964844 0.535156 72.46875 0.671875 72.941406 0.828125 C 73.417969 0.988281 73.789062 1.152344 74.050781 1.308594 C 74.417969 1.523438 74.683594 1.738281 74.84375 1.976562 C 75.003906 2.191406 75.078125 2.484375 75.078125 2.859375 L 75.078125 4.113281 C 75.078125 4.671875 74.871094 4.964844 74.472656 4.964844 C 74.261719 4.964844 73.917969 4.859375 73.46875 4.648438 C 71.964844 3.953125 70.273438 3.605469 68.398438 3.605469 C 66.894531 3.605469 65.707031 3.847656 64.886719 4.355469 C 64.070312 4.859375 63.648438 5.632812 63.648438 6.730469 C 63.648438 7.476562 63.910156 8.117188 64.4375 8.625 C 64.96875 9.132812 65.945312 9.640625 67.34375 10.09375 L 71.09375 11.292969 C 72.996094 11.910156 74.367188 12.761719 75.1875 13.855469 C 76.003906 14.949219 76.402344 16.203125 76.402344 17.59375 C 76.402344 18.742188 76.164062 19.78125 75.714844 20.691406 C 75.238281 21.597656 74.605469 22.398438 73.789062 23.039062 C 72.96875 23.707031 71.992188 24.1875 70.855469 24.535156 C 69.667969 24.90625 68.425781 25.09375 67.082031 25.09375 Z M 67.082031 25.09375 "/>
<path style=" stroke:none;fill-rule:nonzero;fill:rgb(100%,60%,0%);fill-opacity:1;" d="M 72.070312 38.066406 C 63.382812 44.554688 50.761719 47.996094 39.90625 47.996094 C 24.695312 47.996094 10.992188 42.3125 0.640625 32.863281 C -0.175781 32.113281 0.5625 31.101562 1.539062 31.6875 C 12.734375 38.253906 26.546875 42.230469 40.832031 42.230469 C 50.472656 42.230469 61.058594 40.203125 70.800781 36.039062 C 72.253906 35.371094 73.496094 37 72.070312 38.066406 Z M 72.070312 38.066406 "/>
<path style=" stroke:none;fill-rule:nonzero;fill:rgb(100%,60%,0%);fill-opacity:1;" d="M 75.6875 33.902344 C 74.578125 32.460938 68.347656 33.207031 65.523438 33.554688 C 64.675781 33.664062 64.546875 32.914062 65.308594 32.355469 C 70.273438 28.832031 78.433594 29.84375 79.382812 31.019531 C 80.335938 32.222656 79.121094 40.46875 74.472656 44.421875 C 73.757812 45.035156 73.074219 44.714844 73.390625 43.914062 C 74.449219 41.269531 76.796875 35.316406 75.6875 33.902344 Z M 75.6875 33.902344 "/>
</g>
</svg>
