<?xml version="1.0" encoding="UTF-8"?>
<svg xmlns="http://www.w3.org/2000/svg" xmlns:xlink="http://www.w3.org/1999/xlink" width="200px" height="26px" viewBox="0 0 200 26" version="1.1">
<g id="surface1">
<path style=" stroke:none;fill-rule:nonzero;fill:rgb(78.039216%,27.45098%,20.392157%);fill-opacity:1;" d="M 86.226562 16.917969 L 99.417969 16.917969 L 92.449219 5.652344 L 79.636719 26 L 73.808594 26 L 89.394531 1.585938 C 90.082031 0.597656 91.207031 0.00390625 92.414062 -0.00390625 C 93.617188 -0.0117188 94.75 0.5625 95.453125 1.542969 L 111.082031 26 L 105.253906 26 L 102.511719 21.449219 L 89.160156 21.449219 L 86.25 16.917969 M 146.796875 21.449219 L 146.796875 0.242188 L 141.84375 0.242188 L 141.84375 23.539062 C 141.84375 24.191406 142.109375 24.820312 142.582031 25.273438 C 143.054688 25.757812 143.703125 26.027344 144.382812 26.027344 L 166.890625 26.027344 L 169.828125 21.476562 L 146.769531 21.476562 M 64.917969 17.664062 C 69.722656 17.664062 73.617188 13.761719 73.617188 8.953125 C 73.617188 4.140625 69.722656 0.242188 64.917969 0.242188 L 43.273438 0.242188 L 43.273438 26 L 48.214844 26 L 48.214844 4.800781 L 64.613281 4.800781 C 66.914062 4.800781 68.777344 6.667969 68.777344 8.96875 C 68.777344 11.273438 66.914062 13.136719 64.613281 13.136719 L 50.667969 13.136719 L 65.4375 26 L 72.613281 26 L 62.691406 17.664062 L 64.917969 17.664062 M 12.867188 26 L 27.816406 26 C 34.792969 25.820312 40.351562 20.109375 40.351562 13.125 C 40.351562 6.144531 34.792969 0.433594 27.816406 0.25 L 12.867188 0.25 C 8.191406 0.128906 3.820312 2.558594 1.445312 6.589844 C -0.925781 10.625 -0.925781 15.628906 1.445312 19.660156 C 3.820312 23.695312 8.191406 26.121094 12.867188 26 M 27.480469 21.46875 L 13.195312 21.46875 C 8.703125 21.324219 5.132812 17.632812 5.132812 13.132812 C 5.132812 8.632812 8.703125 4.945312 13.195312 4.800781 L 27.480469 4.800781 C 30.519531 4.703125 33.367188 6.269531 34.917969 8.886719 C 36.464844 11.507812 36.464844 14.761719 34.917969 17.378906 C 33.367188 20 30.519531 21.566406 27.480469 21.46875 M 121.410156 26 L 136.675781 26 L 139.566406 21.46875 L 121.75 21.46875 C 118.710938 21.566406 115.859375 20 114.3125 17.378906 C 112.765625 14.761719 112.765625 11.507812 114.3125 8.886719 C 115.859375 6.269531 118.710938 4.703125 121.75 4.800781 L 136.25 4.800781 L 139.175781 0.25 L 121.410156 0.25 C 116.738281 0.128906 112.363281 2.558594 109.992188 6.589844 C 107.617188 10.625 107.617188 15.628906 109.992188 19.660156 C 112.363281 23.695312 116.738281 26.121094 121.410156 26 M 181.90625 21.46875 C 178.175781 21.46875 174.902344 18.992188 173.886719 15.402344 L 195.03125 15.402344 L 197.9375 10.859375 L 173.886719 10.859375 C 174.898438 7.265625 178.175781 4.789062 181.90625 4.792969 L 196.414062 4.792969 L 199.316406 0.242188 L 181.566406 0.242188 C 174.59375 0.421875 169.035156 6.132812 169.035156 13.117188 C 169.035156 20.097656 174.59375 25.808594 181.566406 25.992188 L 196.832031 25.992188 L 199.730469 21.457031 L 181.894531 21.457031 "/>
</g>
</svg>
